<svg width="21" height="20" viewBox="0 0 21 20" fill="none" xmlns="http://www.w3.org/2000/svg">
<path d="M6.11 17.45C3.94 16.65 2.22 14.78 1.71 12.35L0.0500016 4.54C-0.189998 3.46 0.500002 2.4 1.58 2.17L11.35 0.100001L11.38 0.0900007C12.45 -0.119999 13.5 0.570001 13.72 1.63L14.07 3.3L18.42 4.23H18.45C19.5 4.47 20.18 5.53 19.96 6.59L18.3 14.41C17.5 18.18 13.78 20.6 10 19.79C8.42 19.46 7.08 18.61 6.11 17.45ZM18 6.18L8.23 4.1L6.57 11.92V11.95C6 14.63 7.73 17.27 10.42 17.84C13.11 18.41 15.77 16.69 16.34 14L18 6.18ZM14 14.5C13.37 15.57 12.11 16.16 10.83 15.89C9.56 15.62 8.65 14.57 8.5 13.34L14 14.5ZM6.47 3.17L2 4.13L3.66 11.94L3.67 11.97C3.82 12.68 4.12 13.32 4.53 13.87C4.43 13.1 4.45 12.3 4.62 11.5L5.05 9.5C4.6 9.42 4.21 9.17 4 8.81C4.06 8.2 4.56 7.66 5.25 7.5C5.33 7.5 5.4 7.5 5.5 7.5L6.28 3.69C6.32 3.5 6.38 3.33 6.47 3.17ZM13.03 10.23C13.35 9.7 14.03 9.42 14.72 9.57C15.41 9.71 15.91 10.24 16 10.86C15.67 11.38 15 11.66 14.3 11.5C13.61 11.37 13.11 10.84 13.03 10.23ZM8.15 9.19C8.47 8.66 9.14 8.38 9.83 8.53C10.5 8.67 11.03 9.21 11.11 9.82C10.78 10.34 10.11 10.63 9.42 10.5C8.73 10.33 8.23 9.8 8.15 9.19ZM9.97 2.43L11.93 2.85L11.77 2.05L9.97 2.43Z" fill="#1C1917"/>
</svg>
