<svg width="24" height="24" viewBox="0 0 24 24" fill="none" xmlns="http://www.w3.org/2000/svg">
<path d="M12 11C12.2652 11 12.5196 11.1054 12.7071 11.2929C12.8947 11.4804 13 11.7348 13 12C13 12.2652 12.8947 12.5196 12.7071 12.7071C12.5196 12.8946 12.2652 13 12 13C11.7348 13 11.4804 12.8946 11.2929 12.7071C11.1054 12.5196 11 12.2652 11 12C11 11.7348 11.1054 11.4804 11.2929 11.2929C11.4804 11.1054 11.7348 11 12 11ZM4.22001 4.21999C5.65001 2.78999 8.75001 3.42999 12 5.55999C15.25 3.42999 18.35 2.78999 19.78 4.21999C21.21 5.64999 20.57 8.75 18.44 12C20.57 15.25 21.21 18.35 19.78 19.78C18.35 21.21 15.25 20.57 12 18.44C8.75001 20.57 5.65001 21.21 4.22001 19.78C2.79001 18.35 3.43001 15.25 5.56001 12C3.43001 8.75 2.79001 5.64999 4.22001 4.21999ZM15.54 8.45999C16.15 9.07999 16.71 9.70999 17.23 10.34C18.61 8.20999 19.11 6.37999 18.36 5.63999C17.62 4.88999 15.79 5.38999 13.66 6.76999C14.29 7.28999 14.92 7.84999 15.54 8.45999ZM8.46001 15.54C7.85001 14.92 7.29001 14.29 6.77001 13.66C5.39001 15.79 4.89001 17.62 5.64001 18.36C6.38001 19.11 8.21001 18.61 10.34 17.23C9.71001 16.71 9.08001 16.15 8.46001 15.54ZM5.64001 5.63999C4.89001 6.37999 5.39001 8.20999 6.77001 10.34C7.29001 9.70999 7.85001 9.07999 8.46001 8.45999C9.08001 7.84999 9.71001 7.28999 10.34 6.76999C8.21001 5.38999 6.38001 4.88999 5.64001 5.63999ZM9.88001 14.12C10.58 14.82 11.3 15.46 12 16.03C12.7 15.46 13.42 14.82 14.12 14.12C14.82 13.42 15.46 12.7 16.03 12C15.46 11.3 14.82 10.58 14.12 9.87999C13.42 9.18 12.7 8.53999 12 7.96999C11.3 8.53999 10.58 9.18 9.88001 9.87999C9.18001 10.58 8.54001 11.3 7.97001 12C8.54001 12.7 9.18001 13.42 9.88001 14.12ZM18.36 18.36C19.11 17.62 18.61 15.79 17.23 13.66C16.71 14.29 16.15 14.92 15.54 15.54C14.92 16.15 14.29 16.71 13.66 17.23C15.79 18.61 17.62 19.11 18.36 18.36Z" fill="#1C1917"/>
</svg>
