<svg width="20" height="22" viewBox="0 0 20 22" fill="none" xmlns="http://www.w3.org/2000/svg">
<path d="M0.34 13.63C0.94 13.41 1.56 13.3 2.22 13.3C3.56 13.3 4.73 13.72 5.73 14.56L2.59 17.7C1.53 16.5 0.78 15.13 0.34 13.63ZM13.56 8.8C15.53 10.27 17.66 10.63 19.94 9.88C19.97 10.09 20 10.47 20 11C20 12.03 19.75 13.18 19.28 14.45C18.81 15.71 18.23 16.73 17.55 17.5L11.22 11.19L13.56 8.8ZM6.77 15.64C7.83 17.17 8.05 18.84 7.42 20.66C6 20.25 4.73 19.61 3.67 18.73L6.77 15.64ZM10.19 12.22L16.5 18.55C14.33 20.45 11.78 21.25 8.88 20.94C9.09 20.28 9.2 19.56 9.2 18.78C9.2 18.16 9.06 17.43 8.78 16.6C8.5 15.77 8.17 15.09 7.8 14.56L10.19 12.22ZM6.81 13.5C5.88 12.67 4.8 12.15 3.58 11.91C2.36 11.68 1.19 11.75 0.0599999 12.13C0.0299999 11.91 0 11.53 0 11C0 9.97 0.25 8.82 0.72 7.55C1.19 6.29 1.77 5.27 2.45 4.5L9.11 11.19L6.81 13.5ZM13.56 6.73C12.22 5.08 11.91 3.28 12.63 1.34C13.25 1.5 13.96 1.8 14.76 2.26C15.55 2.71 16.2 3.16 16.7 3.59L13.56 6.73ZM19.66 8.38C19.06 8.59 18.44 8.7 17.78 8.7C16.69 8.7 15.64 8.38 14.64 7.72L17.73 4.67C18.61 5.77 19.25 7 19.66 8.38ZM10.19 10.11L3.5 3.45C5.67 1.55 8.22 0.750001 11.13 1.06C10.91 1.72 10.8 2.44 10.8 3.22C10.8 3.94 10.96 4.75 11.29 5.66C11.62 6.56 12 7.28 12.5 7.81L10.19 10.11Z" fill="#1C1917"/>
</svg>
